<svg version="1" xmlns="http://www.w3.org/2000/svg" width="682.667" height="682.667" viewBox="0 0 512.000000 512.000000"><path d="M223.5 50c-11.9 1.9-34.2 7.5-36.2 9.2-.7.6-1.3.8-1.3.5 0-.4-4.7 1.3-10.4 3.8-24.5 10.2-45.6 24.1-65.3 42.9-32.5 30.9-54.2 73.6-60.8 119.3-1.7 11.9-1.4 54.9.4 63.3.7 3 1.4 6.6 1.6 8 1.7 11.3 7.6 29.7 14.3 44.6C89.6 395 134.9 436 190 454.3c7.4 2.5 15.1 4.7 17.1 5 2 .2 4.1.7 4.6 1 2.8 1.7 27 3.9 47.9 4.2 75.3 1.2 151.1-46.8 184.4-116.8 11.2-23.6 17.4-45.1 19.7-68.4 1-10 1-36.6 0-46.3-5.3-50.9-31.1-100.4-69.8-134.1-30.3-26.3-69.5-44.2-108.4-49.3-14.6-1.9-48.4-1.7-62 .4z"/></svg>