<?xml version="1.0" standalone="no"?>
<!DOCTYPE svg PUBLIC "-//W3C//DTD SVG 20010904//EN"
 "http://www.w3.org/TR/2001/REC-SVG-20010904/DTD/svg10.dtd">
<svg version="1.0" xmlns="http://www.w3.org/2000/svg"
 width="512.000000pt" height="512.000000pt" viewBox="0 0 512.000000 512.000000"
 preserveAspectRatio="xMidYMid meet">
<metadata>
Created by potrace 1.11, written by Peter Selinger 2001-2013
</metadata>
<g transform="translate(0.000000,512.000000) scale(0.100000,-0.100000)"
fill="#000000" stroke="none">
<path d="M2378 5116 c-1 -2 -39 -6 -82 -10 -44 -4 -82 -9 -85 -11 -4 -2 -34
-7 -66 -10 -100 -12 -369 -83 -493 -132 -290 -113 -563 -277 -782 -470 -74
-65 -250 -246 -250 -257 0 -15 3 -20 205 -371 342 -594 425 -739 425 -747 0
-4 5 -8 10 -8 6 0 10 -4 10 -9 0 -13 63 -121 70 -121 3 0 12 17 19 38 52 149
167 327 296 456 210 211 485 343 775 371 36 4 577 7 1203 7 625 0 1137 3 1137
6 0 12 -153 232 -216 312 -163 205 -436 446 -659 581 -302 184 -682 320 -985
355 -25 2 -61 7 -80 10 -39 6 -446 14 -452 10z"/>
<path d="M357 3847 c-55 -76 -110 -184 -171 -333 -47 -115 -118 -345 -131
-424 -4 -25 -9 -54 -11 -65 -3 -11 -12 -67 -21 -125 -24 -154 -23 -590 2 -703
2 -12 7 -35 9 -52 32 -203 81 -371 173 -595 250 -606 783 -1127 1398 -1368
201 -79 472 -150 491 -129 9 10 101 167 304 522 10 17 108 187 219 379 110
192 201 350 201 351 0 1 -34 -3 -76 -10 -93 -14 -315 -12 -404 4 -295 54 -579
218 -763 442 -141 169 -257 425 -281 616 -4 27 -219 407 -664 1173 -166 285
-180 310 -199 348 -9 17 -20 32 -24 32 -4 0 -28 -28 -52 -63z"/>
<path d="M2380 3505 c-348 -69 -625 -314 -735 -650 -14 -44 -28 -98 -31 -120
-4 -22 -8 -51 -10 -65 -2 -14 -4 -59 -5 -100 -5 -444 298 -832 734 -941 123
-31 296 -33 427 -5 125 26 239 76 350 154 420 292 531 872 251 1307 -62 98
-198 230 -300 293 -81 49 -217 106 -284 117 -17 3 -46 10 -63 14 -47 13 -261
10 -334 -4z"/>
<path d="M3471 3453 c105 -109 155 -177 224 -308 36 -68 91 -204 99 -248 2
-12 9 -44 15 -71 19 -82 26 -156 25 -286 -2 -339 -133 -643 -383 -890 l-106
-105 -253 -440 c-140 -242 -305 -528 -367 -635 -61 -107 -146 -254 -189 -327
-42 -73 -76 -135 -76 -139 0 -6 232 2 295 10 17 2 57 7 90 10 52 6 109 15 260
41 269 47 613 188 861 354 65 44 128 88 139 98 11 10 52 43 90 74 297 240 564
600 719 971 81 195 156 456 172 598 2 25 6 54 9 65 17 85 25 359 13 515 -13
176 -61 399 -140 643 l-41 127 -756 0 -755 0 55 -57z"/>
</g>
</svg>
